<!DOCTYPE svg PUBLIC "-//W3C//DTD SVG 1.1//EN" "http://www.w3.org/Graphics/SVG/1.1/DTD/svg11.dtd">
<!-- Uploaded to: SVG Repo, www.svgrepo.com, Transformed by: SVG Repo Mixer Tools -->
<svg height="64px" width="64px" version="1.1" id="Layer_1" xmlns="http://www.w3.org/2000/svg" xmlns:xlink="http://www.w3.org/1999/xlink" viewBox="0 0 513.103 513.103" xml:space="preserve" fill="#000000">
<g id="SVGRepo_bgCarrier" stroke-width="0"/>
<g id="SVGRepo_tracerCarrier" stroke-linecap="round" stroke-linejoin="round"/>
<g id="SVGRepo_iconCarrier"> <path style="fill:#1ed760;" d="M0,513.103L0,513.103L0,513.103c4.414-20.303,14.124-38.841,29.131-53.848l177.434-177.434 l24.717,24.717L53.848,483.972C38.841,498.979,20.303,508.69,0,513.103"/> <path style="fill:#1ed760;" d="M309.848,385.986L127.117,203.255c-7.062-7.062-4.414-18.538,5.297-22.069l22.069-7.062 c20.303-7.062,42.372-1.766,57.379,13.241l112.993,113.876c15.007,15.007,20.303,37.076,13.241,57.379l-7.062,22.069 C328.386,389.517,316.028,393.048,309.848,385.986"/> <polygon style="fill:#1ed760;" points="324.855,301.241 211.862,188.248 361.931,63.779 449.324,151.172 "/> <path style="fill:#1ed760;" d="M473.159,174.124L338.979,39.945c-4.414-4.414-4.414-11.476,0-15.89L358.4,4.634 c6.179-6.179,15.007-6.179,21.186,0l128.883,128.883c6.179,6.179,6.179,15.007,0,21.186l-18.538,18.538 C483.752,178.538,476.69,178.538,473.159,174.124"/> </g>
</svg>